<svg width="17" height="23" viewBox="0 0 17 23" fill="none" xmlns="http://www.w3.org/2000/svg">
<path d="M0.489603 10.5531C0.338607 10.6586 0.215147 10.7998 0.129856 10.9644C0.0445647 11.1291 -4.9448e-07 11.3124 -5.02613e-07 11.4984C-5.10745e-07 11.6845 0.0445647 11.8678 0.129856 12.0324C0.215146 12.1971 0.338607 12.3383 0.489602 12.4438L15.2219 22.7946C15.3918 22.9144 15.5909 22.9847 15.7974 22.9978C16.0039 23.0108 16.21 22.9662 16.3933 22.8688C16.5765 22.7713 16.73 22.6248 16.837 22.445C16.9439 22.2653 17.0003 22.0592 17 21.8493L17 1.14763C16.9991 0.938134 16.942 0.732837 16.8348 0.553817C16.7276 0.374797 16.5743 0.228827 16.3914 0.131605C16.2086 0.0343833 16.0031 -0.010412 15.797 0.00203652C15.5909 0.014485 15.3921 0.0837063 15.2219 0.202256L0.489603 10.5531Z" fill="#7797E2"/>
</svg>
