<svg width="23" height="17" viewBox="0 0 23 17" fill="none" xmlns="http://www.w3.org/2000/svg">
<path d="M10.5531 16.5104C10.6586 16.6614 10.7998 16.7849 10.9644 16.8701C11.1291 16.9554 11.3124 17 11.4984 17C11.6845 17 11.8678 16.9554 12.0324 16.8701C12.1971 16.7849 12.3383 16.6614 12.4438 16.5104L22.7946 1.77808C22.9144 1.60815 22.9847 1.40913 22.9978 1.20262C23.0108 0.996109 22.9662 0.790019 22.8688 0.606738C22.7713 0.423458 22.6248 0.269996 22.445 0.163028C22.2653 0.0560599 22.0592 -0.000324501 21.8493 1.40484e-06H1.14763C0.938134 0.000854076 0.732837 0.0579636 0.553817 0.165188C0.374797 0.272412 0.228827 0.425695 0.131605 0.608552C0.0343833 0.791408 -0.010412 0.99692 0.00203658 1.20299C0.0144851 1.40905 0.0837064 1.60788 0.202256 1.77808L10.5531 16.5104Z" fill="#D9D7D7"/>
</svg>
