<svg width="13" height="16" viewBox="0 0 13 16" fill="none" xmlns="http://www.w3.org/2000/svg">
<path d="M12.6256 8.65874C12.7411 8.58534 12.8355 8.48713 12.9007 8.37256C12.9659 8.258 13 8.13051 13 8.00108C13 7.87166 12.9659 7.74417 12.9007 7.62961C12.8355 7.51504 12.7411 7.41683 12.6256 7.34343L1.35971 0.142869C1.22976 0.0595226 1.07757 0.0106468 0.919648 0.00155159C0.76173 -0.0075455 0.604131 0.023488 0.463976 0.0912771C0.32382 0.159066 0.206467 0.26102 0.124668 0.38606C0.0428687 0.511101 -0.000248819 0.654446 4.09902e-07 0.800521L1.0394e-06 15.2016C0.000653089 15.3474 0.0443251 15.4902 0.12632 15.6147C0.208315 15.7393 0.325532 15.8408 0.465363 15.9084C0.605195 15.9761 0.762351 16.0072 0.919931 15.9986C1.07751 15.9899 1.22955 15.9418 1.35971 15.8593L12.6256 8.65874Z" fill="white"/>
</svg>
