<svg width="180" height="27" viewBox="0 0 180 27" fill="none" xmlns="http://www.w3.org/2000/svg">
<path d="M0.538574 0.288574H14.6206C16.6714 0.288574 18.4487 0.510742 19.9526 0.955078C21.4565 1.39941 22.7041 2.04313 23.6953 2.88623C24.6865 3.71794 25.4214 4.73763 25.8999 5.94531C26.3898 7.15299 26.6348 8.51449 26.6348 10.0298C26.6348 11.4539 26.3955 12.7699 25.917 13.9775C25.4385 15.1852 24.7036 16.2334 23.7124 17.1221C22.7326 17.9993 21.4907 18.6886 19.9868 19.1899C18.4829 19.6799 16.7056 19.9248 14.6548 19.9248L5.95605 19.9077V27H0.538574V0.288574ZM14.7573 15.2251C15.7827 15.2251 16.6771 15.1055 17.4404 14.8662C18.2152 14.6156 18.8589 14.2681 19.3716 13.8237C19.8957 13.368 20.283 12.8211 20.5337 12.1831C20.7957 11.5337 20.9268 10.8159 20.9268 10.0298C20.9268 8.44613 20.4084 7.21566 19.3716 6.33838C18.3462 5.44971 16.8081 5.00537 14.7573 5.00537H5.95605V15.2251H14.7573ZM34.3149 0.288574H47.9014C49.9521 0.288574 51.7295 0.505046 53.2334 0.937988C54.7373 1.35954 55.9849 1.97477 56.9761 2.78369C57.9673 3.59261 58.7021 4.57812 59.1807 5.74023C59.6706 6.90234 59.9155 8.21826 59.9155 9.68799C59.9155 10.6792 59.7959 11.6248 59.5566 12.5249C59.3174 13.4136 58.9471 14.2339 58.4458 14.9858C57.9559 15.7378 57.335 16.41 56.583 17.0024C55.8311 17.5835 54.9481 18.0677 53.9341 18.4551L59.7446 27H53.1138L48.0894 19.4121H47.9355L39.7324 19.395V27H34.3149V0.288574ZM48.0381 14.7124C49.0635 14.7124 49.9578 14.5928 50.7212 14.3535C51.4959 14.1143 52.1396 13.7782 52.6523 13.3452C53.1764 12.9123 53.5638 12.3882 53.8145 11.7729C54.0765 11.1463 54.2075 10.4513 54.2075 9.68799C54.2075 8.19548 53.6948 7.04476 52.6694 6.23584C51.644 5.41553 50.1003 5.00537 48.0381 5.00537H39.7324V14.7124H48.0381ZM67.4077 0.288574H72.8594V27H67.4077V0.288574ZM93.8184 8.03027L96.3818 4.90283H80.3345V0.288574H106.465L91.5112 19.0703L88.8452 22.3857H105.627V27H79.0186L93.8184 8.03027ZM112.521 0.288574H117.939L127.646 10.0298L137.353 0.288574H142.771V27H137.353V7.79102L127.646 17.1392L117.939 7.79102V27H112.521V0.288574ZM161.234 0.288574H166.977L179.896 27H174.206L172.069 22.5054H156.466L154.398 27H148.69L161.234 0.288574ZM169.933 18.0449L164.157 5.91113L158.534 18.0449H169.933Z" fill="url(#paint0_linear_1_6)"/>
<defs>
<linearGradient id="paint0_linear_1_6" x1="-29" y1="12.5" x2="158.5" y2="13" gradientUnits="userSpaceOnUse">
<stop offset="0.185502" stop-color="#59CFF8"/>
<stop offset="1" stop-color="#FC62BE"/>
</linearGradient>
</defs>
</svg>
